<?xml version="1.0" encoding="UTF-8"?>
<!DOCTYPE svg PUBLIC "-//W3C//DTD SVG 1.1//EN" "http://www.w3.org/Graphics/SVG/1.1/DTD/svg11.dtd">
<svg version="1.1" xmlns="http://www.w3.org/2000/svg" xmlns:xlink="http://www.w3.org/1999/xlink" x="0" y="0" width="270" height="385" viewBox="0, 0, 270, 385">
  <defs>
    <clipPath id="Clip_1">
      <path d="M267.748,1.553 L267.748,382.383 L1.877,382.383 L1.877,1.553 L267.748,1.553 z"/>
    </clipPath>
  </defs>
  <g id="Layer_1">
    <g clip-path="url(#Clip_1)">
      <path d="M171.814,318.558 C169.687,307.937 166.545,294 164.447,284.866 C167.364,293.853 172.234,308.357 176.003,317.068 L172.014,319.521 C171.947,319.199 171.878,318.876 171.814,318.558 M131.538,510.727 C133.173,511.105 134.936,511.314 136.778,511.314 C138.88,511.314 140.875,511.036 142.698,510.55 L137.113,636.271 z M108.662,288.284 C108.975,287.337 109.271,286.427 109.554,285.562 C109.319,286.584 109.073,287.661 108.818,288.779 z M252.093,124.111 C241.946,96.492 237.259,61.29 217.877,43.403 C205.339,30.358 190.919,19.299 156.249,10.761 C119.147,1.624 95.007,18.841 86.482,26.499 C86.182,26.55 85.887,26.597 85.583,26.65 C39.05,34.743 36.037,86.267 22.134,124.111 C6.224,167.414 14.801,185.82 28.436,198.441 C23.116,206.175 19.949,215.463 19.715,225.347 C15.618,225.577 7.119,227.265 8.368,237.431 C9.294,244.964 14.435,247.956 24.111,247.169 C28.48,256.872 35.806,264.779 44.789,269.878 L44.789,269.88 L44.788,269.879 C44.788,269.879 34.227,294.737 29.227,316.737 C29.227,316.737 18.227,333.737 32.227,337.737 C46.227,341.737 46.645,324.101 46.645,324.101 C48.324,331.085 50.828,337.382 54.459,342.206 C52.532,346.562 52.98,350.928 53.7,352.255 C54.896,354.459 55.128,355.687 61.032,358.721 C71.751,364.234 84.549,366.135 93.176,360.626 C93.283,362.524 93.747,363.904 94.699,364.595 L92.99,373.564 L97.468,374.04 C87.751,410.675 76.529,457.215 71.469,493.693 L71.468,493.693 C71.454,493.794 71.441,493.892 71.428,493.992 C71.264,495.181 71.106,496.359 70.956,497.525 C70.924,497.771 70.893,498.016 70.861,498.261 C70.728,499.306 70.602,500.34 70.48,501.365 C70.442,501.687 70.403,502.009 70.366,502.329 C70.256,503.289 70.151,504.238 70.051,505.18 C70.016,505.51 69.977,505.844 69.943,506.171 C69.816,507.4 69.697,508.616 69.589,509.811 C71.954,510.757 74.745,511.314 77.749,511.314 C81.493,511.314 84.923,510.459 87.585,509.044 C90.249,510.459 93.679,511.314 97.423,511.314 C100.1,511.314 102.609,510.871 104.799,510.106 L123.258,636.271 L127.063,636.271 C121.701,636.767 115.494,638.237 111.943,642.118 C106.24,648.355 109.758,650.354 109.758,650.354 L164.471,650.354 C164.471,650.354 167.988,648.355 162.283,642.118 C158.732,638.237 152.526,636.767 147.164,636.271 L150.971,636.271 L169.396,510.32 C171.431,510.953 173.713,511.314 176.13,511.314 C179.874,511.314 183.306,510.459 185.968,509.044 C188.632,510.459 192.061,511.314 195.808,511.314 C199.095,511.314 202.14,510.654 204.638,509.534 C204.528,508.334 204.406,507.113 204.277,505.88 C204.248,505.596 204.215,505.307 204.185,505.022 C204.078,504.027 203.967,503.024 203.848,502.009 C203.818,501.754 203.787,501.496 203.757,501.239 C203.625,500.132 203.486,499.012 203.342,497.881 L203.286,497.447 C198.514,460.54 186.894,412.178 176.857,374.313 L181.236,373.847 L179.525,364.878 C182.905,362.428 180.189,351.345 176.867,338.864 C187.206,335.997 198.543,332.64 200.967,331.082 C205.634,328.082 201.698,316.173 201.698,316.173 L201.619,316.165 C199.323,307.66 194.559,293.808 189.506,280.396 C194.844,279.53 198.527,278.435 199.264,276.923 C202.794,269.673 191.608,264.333 195.482,259.423 C199.584,254.226 216.084,257.537 218.677,249.173 C221.179,241.099 208.521,234.297 214.475,225.56 C216.951,221.922 220.012,218.81 223.367,215.938 C229.381,210.871 236.034,207.019 241.574,202.072 C257.471,189.253 269.592,171.74 252.093,124.111" fill="#666666"/>
      <path d="M171.814,318.558 C169.687,307.937 166.545,294 164.447,284.866 C167.364,293.853 172.234,308.357 176.003,317.068 L172.014,319.521 C171.947,319.199 171.878,318.876 171.814,318.558 z M131.538,510.727 C133.173,511.105 134.936,511.314 136.778,511.314 C138.88,511.314 140.875,511.036 142.698,510.55 L137.113,636.271 L131.538,510.727 z M108.662,288.284 C108.975,287.337 109.271,286.427 109.554,285.562 C109.319,286.584 109.073,287.661 108.818,288.779 L108.662,288.284 z M252.093,124.111 C241.946,96.492 237.259,61.29 217.877,43.403 C205.339,30.358 190.919,19.299 156.249,10.761 C119.147,1.624 95.007,18.841 86.482,26.499 C86.182,26.55 85.887,26.597 85.583,26.65 C39.05,34.743 36.037,86.267 22.134,124.111 C6.224,167.414 14.801,185.82 28.436,198.441 C23.116,206.175 19.949,215.463 19.715,225.347 C15.618,225.577 7.119,227.265 8.368,237.431 C9.294,244.964 14.435,247.956 24.111,247.169 C28.48,256.872 35.806,264.779 44.789,269.878 L44.789,269.88 L44.788,269.879 C44.788,269.879 34.227,294.737 29.227,316.737 C29.227,316.737 18.227,333.737 32.227,337.737 C46.227,341.737 46.645,324.101 46.645,324.101 C48.324,331.085 50.828,337.382 54.459,342.206 C52.532,346.562 52.98,350.928 53.7,352.255 C54.896,354.459 55.128,355.687 61.032,358.721 C71.751,364.234 84.549,366.135 93.176,360.626 C93.283,362.524 93.747,363.904 94.699,364.595 L92.99,373.564 L97.468,374.04 C87.751,410.675 76.529,457.215 71.469,493.693 L71.468,493.693 C71.454,493.794 71.441,493.892 71.428,493.992 C71.264,495.181 71.106,496.359 70.956,497.525 C70.924,497.771 70.893,498.016 70.861,498.261 C70.728,499.306 70.602,500.34 70.48,501.365 C70.442,501.687 70.403,502.009 70.366,502.329 C70.256,503.289 70.151,504.238 70.051,505.18 C70.016,505.51 69.977,505.844 69.943,506.171 C69.816,507.4 69.697,508.616 69.589,509.811 C71.954,510.757 74.745,511.314 77.749,511.314 C81.493,511.314 84.923,510.459 87.585,509.044 C90.249,510.459 93.679,511.314 97.423,511.314 C100.1,511.314 102.609,510.871 104.799,510.106 L123.258,636.271 L127.063,636.271 C121.701,636.767 115.494,638.237 111.943,642.118 C106.24,648.355 109.758,650.354 109.758,650.354 L164.471,650.354 C164.471,650.354 167.988,648.355 162.283,642.118 C158.732,638.237 152.526,636.767 147.164,636.271 L150.971,636.271 L169.396,510.32 C171.431,510.953 173.713,511.314 176.13,511.314 C179.874,511.314 183.306,510.459 185.968,509.044 C188.632,510.459 192.061,511.314 195.808,511.314 C199.095,511.314 202.14,510.654 204.638,509.534 C204.528,508.334 204.406,507.113 204.277,505.88 C204.248,505.596 204.215,505.307 204.185,505.022 C204.078,504.027 203.967,503.024 203.848,502.009 C203.818,501.754 203.787,501.496 203.757,501.239 C203.625,500.132 203.486,499.012 203.342,497.881 L203.286,497.447 C198.514,460.54 186.894,412.178 176.857,374.313 L181.236,373.847 L179.525,364.878 C182.905,362.428 180.189,351.345 176.867,338.864 C187.206,335.997 198.543,332.64 200.967,331.082 C205.634,328.082 201.698,316.173 201.698,316.173 L201.619,316.165 C199.323,307.66 194.559,293.808 189.506,280.396 C194.844,279.53 198.527,278.435 199.264,276.923 C202.794,269.673 191.608,264.333 195.482,259.423 C199.584,254.226 216.084,257.537 218.677,249.173 C221.179,241.099 208.521,234.297 214.475,225.56 C216.951,221.922 220.012,218.81 223.367,215.938 C229.381,210.871 236.034,207.019 241.574,202.072 C257.471,189.253 269.592,171.74 252.093,124.111 z" fill-opacity="0" stroke="#666666" stroke-width="8" stroke-linecap="round" stroke-linejoin="round"/>
      <path d="M252.093,124.111 C241.946,96.492 237.259,61.29 217.877,43.403 C205.339,30.358 190.919,19.299 156.249,10.761 C119.147,1.624 95.007,18.841 86.482,26.499 C86.182,26.55 85.887,26.597 85.583,26.65 C39.05,34.743 36.037,86.267 22.134,124.111 C-5.86,200.306 41.948,199.425 59.752,225.56 C65.704,234.297 53.048,241.099 55.55,249.173 C58.143,257.537 74.642,254.226 78.744,259.423 C82.618,264.333 71.433,269.673 74.963,276.923 C77.233,281.586 107.444,282.297 128.287,284.469 C129.674,285.951 131.879,286.541 135.216,285.923 C135.824,285.811 136.458,285.701 137.113,285.596 C137.769,285.701 138.402,285.811 139.011,285.923 C142.348,286.541 144.553,285.951 145.939,284.469 C166.782,282.297 196.993,281.586 199.264,276.923 C202.794,269.673 191.608,264.333 195.482,259.423 C199.584,254.226 216.084,257.537 218.677,249.173 C221.179,241.099 208.521,234.297 214.475,225.56 C216.951,221.922 220.012,218.81 223.367,215.938 C229.381,210.871 236.034,207.019 241.574,202.072 C257.471,189.253 269.592,171.74 252.093,124.111" fill="#D4A672"/>
      <path d="M252.093,124.111 C241.946,96.492 237.259,61.29 217.877,43.403 C205.339,30.358 190.919,19.299 156.249,10.761 C119.147,1.624 95.007,18.841 86.482,26.499 C86.182,26.55 85.887,26.597 85.583,26.65 C39.05,34.743 36.037,86.267 22.134,124.111 C-5.86,200.306 41.948,199.425 59.752,225.56 C65.704,234.297 53.048,241.099 55.55,249.173 C58.143,257.537 74.642,254.226 78.744,259.423 C82.618,264.333 71.433,269.673 74.963,276.923 C77.233,281.586 107.444,282.297 128.287,284.469 C129.674,285.951 131.879,286.541 135.216,285.923 C135.824,285.811 136.458,285.701 137.113,285.596 C137.769,285.701 138.402,285.811 139.011,285.923 C142.348,286.541 144.553,285.951 145.939,284.469 C166.782,282.297 196.993,281.586 199.264,276.923 C202.794,269.673 191.608,264.333 195.482,259.423 C199.584,254.226 216.084,257.537 218.677,249.173 C221.179,241.099 208.521,234.297 214.475,225.56 C216.951,221.922 220.012,218.81 223.367,215.938 C229.381,210.871 236.034,207.019 241.574,202.072 C257.471,189.253 269.592,171.74 252.093,124.111 z" fill-opacity="0" stroke="#666666" stroke-width="4" stroke-linecap="round" stroke-linejoin="round"/>
      <path d="M136.785,237.04 C136.785,237.04 161.952,239.07 172.523,242.563 C176.082,243.738 196.257,296.088 201.698,316.456 C201.698,316.456 200.948,336.942 180.102,324.253 C175.794,321.631 161.911,276.915 161.911,276.915" fill="#FFB8CD"/>
      <path d="M136.785,237.04 C136.785,237.04 161.952,239.07 172.523,242.563 C176.082,243.738 196.257,296.088 201.698,316.456 C201.698,316.456 200.948,336.942 180.102,324.253 C175.794,321.631 161.911,276.915 161.911,276.915" fill-opacity="0" stroke="#666666" stroke-width="4" stroke-linecap="round" stroke-linejoin="round"/>
      <path d="M137.441,237.04 C137.441,237.04 112.274,239.07 101.703,242.563 C98.144,243.738 77.97,296.088 72.528,316.456 C72.528,316.456 73.278,336.942 94.124,324.253 C98.433,321.631 112.315,276.915 112.315,276.915" fill="#FFB8CD"/>
      <path d="M137.441,237.04 C137.441,237.04 112.274,239.07 101.703,242.563 C98.144,243.738 77.97,296.088 72.528,316.456 C72.528,316.456 73.278,336.942 94.124,324.253 C98.433,321.631 112.315,276.915 112.315,276.915" fill-opacity="0" stroke="#666666" stroke-width="4" stroke-linecap="round" stroke-linejoin="round"/>
      <path d="M160.754,240.105 L144.965,237.53 L143.603,223.151 L137.113,218.931 L130.623,223.151 L129.262,237.53 L113.473,240.105 C113.473,240.105 103.828,262.738 137.113,262.738 C170.398,262.738 160.754,240.105 160.754,240.105" fill="#FFECD0"/>
      <path d="M160.754,240.105 L144.965,237.53 L143.603,223.151 L137.113,218.931 L130.623,223.151 L129.262,237.53 L113.473,240.105 C113.473,240.105 103.828,262.738 137.113,262.738 C170.398,262.738 160.754,240.105 160.754,240.105 z" fill-opacity="0" stroke="#666666" stroke-width="4" stroke-linecap="round" stroke-linejoin="round"/>
      <path d="M77.749,511.314 C81.493,511.314 84.923,510.459 87.585,509.044 C90.249,510.459 93.679,511.314 97.423,511.314 C101.169,511.314 104.599,510.459 107.263,509.044 C109.927,510.459 113.356,511.314 117.101,511.314 C120.847,511.314 124.274,510.459 126.938,509.044 C129.602,510.459 133.032,511.314 136.778,511.314 C140.522,511.314 143.952,510.459 146.616,509.044 C149.278,510.459 152.71,511.314 156.454,511.314 C160.198,511.314 163.628,510.459 166.292,509.044 C168.956,510.459 172.386,511.314 176.13,511.314 C179.874,511.314 183.306,510.459 185.968,509.044 C188.632,510.459 192.061,511.314 195.808,511.314 C199.095,511.314 202.14,510.654 204.638,509.534 C198.315,440.376 159.745,313.571 159.745,313.571 L156.745,267.571 L137.126,265.071 L117.509,267.571 L114.509,313.571 C114.509,313.571 75.835,440.714 69.589,509.811 C71.954,510.757 74.745,511.314 77.749,511.314" fill="#FFF8B5"/>
      <path d="M77.749,511.314 C81.493,511.314 84.923,510.459 87.585,509.044 C90.249,510.459 93.679,511.314 97.423,511.314 C101.169,511.314 104.599,510.459 107.263,509.044 C109.927,510.459 113.356,511.314 117.101,511.314 C120.847,511.314 124.274,510.459 126.938,509.044 C129.602,510.459 133.032,511.314 136.778,511.314 C140.522,511.314 143.952,510.459 146.616,509.044 C149.278,510.459 152.71,511.314 156.454,511.314 C160.198,511.314 163.628,510.459 166.292,509.044 C168.956,510.459 172.386,511.314 176.13,511.314 C179.874,511.314 183.306,510.459 185.968,509.044 C188.632,510.459 192.061,511.314 195.808,511.314 C199.095,511.314 202.14,510.654 204.638,509.534 C198.315,440.376 159.745,313.571 159.745,313.571 L156.745,267.571 L137.126,265.071 L117.509,267.571 L114.509,313.571 C114.509,313.571 75.835,440.714 69.589,509.811 C71.954,510.757 74.745,511.314 77.749,511.314 z" fill-opacity="0" stroke="#666666" stroke-width="4" stroke-linecap="round" stroke-linejoin="round"/>
      <path d="M159.113,324.524 L115.113,324.524 L115.113,316.199 L159.113,316.199 z" fill="#EBBB99"/>
      <path d="M159.113,324.524 L115.113,324.524 L115.113,316.198 L159.113,316.198 L159.113,324.524 z" fill-opacity="0" stroke="#666666" stroke-width="4" stroke-linecap="round" stroke-linejoin="round"/>
      <path d="M140.78,324.524 L133.445,324.524 L133.445,316.199 L140.78,316.199 z" fill="#EBBB99"/>
      <path d="M140.78,324.524 L133.445,324.524 L133.445,316.198 L140.78,316.198 L140.78,324.524 z" fill-opacity="0" stroke="#666666" stroke-width="4" stroke-linecap="round" stroke-linejoin="round"/>
      <path d="M153.298,277.238 C153.489,275.931 153.599,274.529 153.599,273.063 C153.599,266.095 151.243,260.448 148.337,260.448 C147.302,260.448 146.345,261.191 145.53,262.428 C144.718,261.191 143.761,260.448 142.726,260.448 C141.69,260.448 140.733,261.191 139.919,262.428 C139.106,261.191 138.147,260.448 137.113,260.448 C136.078,260.448 135.12,261.191 134.308,262.428 C133.493,261.191 132.536,260.448 131.501,260.448 C130.466,260.448 129.509,261.191 128.694,262.428 C127.882,261.191 126.924,260.448 125.89,260.448 C122.983,260.448 120.628,266.095 120.628,273.063 C120.628,274.529 120.737,275.931 120.929,277.238 z" fill="#FFFFFF"/>
      <path d="M153.298,277.238 C153.489,275.931 153.599,274.529 153.599,273.063 C153.599,266.095 151.243,260.448 148.337,260.448 C147.302,260.448 146.345,261.191 145.53,262.428 C144.718,261.191 143.761,260.448 142.726,260.448 C141.69,260.448 140.733,261.191 139.919,262.428 C139.106,261.191 138.147,260.448 137.113,260.448 C136.078,260.448 135.12,261.191 134.308,262.428 C133.493,261.191 132.536,260.448 131.501,260.448 C130.466,260.448 129.509,261.191 128.694,262.428 C127.882,261.191 126.924,260.448 125.89,260.448 C122.983,260.448 120.628,266.095 120.628,273.063 C120.628,274.529 120.737,275.931 120.929,277.238 L153.298,277.238 z" fill-opacity="0" stroke="#666666" stroke-width="4" stroke-linecap="round" stroke-linejoin="round"/>
      <path d="M111.986,275.071 C111.986,275.071 105.863,301.044 102.41,318.275 C98.744,336.571 89.494,360.821 94.699,364.595 L92.99,373.564 L111.721,375.556 L111.723,375.556 L127.844,255.759 C118.352,253.328 113.896,247.276 113.473,240.105 C110.949,240.565 107.654,241.559 105.828,242.572" fill="#FFB8CD"/>
      <path d="M111.986,275.071 C111.986,275.071 105.863,301.044 102.41,318.275 C98.744,336.571 89.494,360.821 94.699,364.595 L92.99,373.564 L111.721,375.556 L111.723,375.556 L127.844,255.759 C118.352,253.328 113.896,247.276 113.473,240.105 C110.949,240.565 107.654,241.559 105.828,242.572" fill-opacity="0" stroke="#666666" stroke-width="4" stroke-linecap="round" stroke-linejoin="round"/>
      <path d="M162.238,275.354 C162.238,275.354 168.363,301.327 171.814,318.558 C175.48,336.855 184.73,361.105 179.525,364.878 L181.236,373.847 L162.506,375.839 L162.504,375.839 L146.381,256.042 C155.875,253.612 160.33,247.559 160.754,240.388 C163.277,240.848 168.682,241.44 168.682,241.44" fill="#FFB8CD"/>
      <path d="M162.238,275.354 C162.238,275.354 168.363,301.327 171.814,318.558 C175.48,336.855 184.73,361.105 179.525,364.878 L181.236,373.847 L162.506,375.839 L162.504,375.839 L146.381,256.042 C155.875,253.612 160.33,247.559 160.754,240.388 C163.277,240.848 168.682,241.44 168.682,241.44" fill-opacity="0" stroke="#666666" stroke-width="4" stroke-linecap="round" stroke-linejoin="round"/>
      <path d="M66.004,135.527 C66.004,135.527 37.861,129.718 37.861,155.162 C37.861,170.129 47.551,176.925 67.469,177.21" fill="#FFECD0"/>
      <path d="M66.004,135.527 C66.004,135.527 37.861,129.718 37.861,155.162 C37.861,170.129 47.551,176.925 67.469,177.21" fill-opacity="0" stroke="#666666" stroke-width="4" stroke-linecap="round" stroke-linejoin="round"/>
      <path d="M48.586,156.539 C48.586,156.539 52.275,154.835 55.791,154.857" fill="#FFECD0"/>
      <path d="M48.586,156.539 C48.586,156.539 52.275,154.835 55.791,154.857" fill-opacity="0" stroke="#666666" stroke-width="4" stroke-linecap="round" stroke-linejoin="round"/>
      <path d="M208.223,135.527 C208.223,135.527 236.365,129.718 236.365,155.162 C236.365,170.129 226.678,176.925 206.76,177.21" fill="#FFECD0"/>
      <path d="M208.223,135.527 C208.223,135.527 236.365,129.718 236.365,155.162 C236.365,170.129 226.678,176.925 206.76,177.21" fill-opacity="0" stroke="#666666" stroke-width="4" stroke-linecap="round" stroke-linejoin="round"/>
      <path d="M225.643,156.539 C225.643,156.539 221.953,154.835 218.437,154.857" fill="#FFECD0"/>
      <path d="M225.643,156.539 C225.643,156.539 221.953,154.835 218.437,154.857" fill-opacity="0" stroke="#666666" stroke-width="4" stroke-linecap="round" stroke-linejoin="round"/>
      <path d="M137.113,231.691 C16.353,231.691 28.037,34.743 137.113,34.743 C246.189,34.743 257.873,231.691 137.113,231.691" fill="#FFECD0"/>
      <path d="M137.113,231.691 C16.353,231.691 28.037,34.743 137.113,34.743 C246.189,34.743 257.873,231.691 137.113,231.691 z" fill-opacity="0" stroke="#666666" stroke-width="4" stroke-linecap="round" stroke-linejoin="round"/>
      <path d="M133.195,172.572 C133.195,172.572 131.861,178.572 137.113,178.239" fill-opacity="0" stroke="#666666" stroke-width="4" stroke-linecap="round" stroke-linejoin="round"/>
      <path d="M120.082,190.904 C120.082,190.904 124.748,198.571 136.749,198.571" fill-opacity="0" stroke="#666666" stroke-width="4" stroke-linecap="round" stroke-linejoin="round"/>
      <path d="M154.144,190.904 C154.144,190.904 149.478,198.571 137.477,198.571" fill-opacity="0" stroke="#666666" stroke-width="4" stroke-linecap="round" stroke-linejoin="round"/>
      <path d="M164.396,97.806 C164.396,97.806 167.484,92.806 174.697,92.806 C179.883,92.806 185.197,99.306 185.197,99.306" fill-opacity="0" stroke="#666666" stroke-width="4" stroke-linecap="round" stroke-linejoin="round"/>
      <path d="M179.027,139.321 C179.027,146.948 176.488,153.131 173.357,153.131 C170.228,153.131 167.689,146.948 167.689,139.321 C167.689,131.695 170.228,125.513 173.357,125.513 C176.488,125.513 179.027,131.695 179.027,139.321" fill="#666666"/>
      <path d="M109.832,97.806 C109.832,97.806 106.744,92.806 99.531,92.806 C94.344,92.806 89.031,99.306 89.031,99.306" fill-opacity="0" stroke="#666666" stroke-width="4" stroke-linecap="round" stroke-linejoin="round"/>
      <path d="M95.201,139.321 C95.201,146.948 97.738,153.131 100.869,153.131 C104,153.131 106.537,146.948 106.537,139.321 C106.537,131.695 104,125.513 100.869,125.513 C97.738,125.513 95.201,131.695 95.201,139.321" fill="#666666"/>
      <path d="M201.698,316.173 C201.698,316.173 205.634,328.082 200.967,331.082 C196.3,334.082 158.588,343.752 158.588,343.752 L154.574,330.246 L180.778,314.13" fill="#FFB8CD"/>
      <path d="M201.698,316.173 C201.698,316.173 205.634,328.082 200.967,331.082 C196.3,334.082 158.588,343.752 158.588,343.752 L154.574,330.246 L180.778,314.13" fill-opacity="0" stroke="#666666" stroke-width="4" stroke-linecap="round" stroke-linejoin="round"/>
      <path d="M105.056,276.861 L119.227,321.737 L77.227,315.737" fill="#E5F5AD"/>
      <path d="M105.056,276.861 L119.227,321.737 L77.227,315.737" fill-opacity="0" stroke="#666666" stroke-width="4" stroke-linecap="round" stroke-linejoin="round"/>
      <path d="M46.257,257.975 C46.257,257.975 35.561,323.618 56.964,345.112 C78.368,366.607 116.718,342.239 116.718,342.239 L138.267,337.804 L138.081,321.746 C138.081,321.746 111.583,303.67 94.888,304.714" fill="#E5F5AD"/>
      <path d="M46.257,257.975 C46.257,257.975 35.561,323.618 56.964,345.112 C78.368,366.607 116.718,342.239 116.718,342.239 L138.267,337.804 L138.081,321.746 C138.081,321.746 111.583,303.67 94.888,304.714" fill-opacity="0" stroke="#666666" stroke-width="4" stroke-linecap="round" stroke-linejoin="round"/>
      <path d="M113.407,214.092 C113.407,214.092 127.763,209.243 129.399,222.56 C130.362,230.396 125.727,234.577 115.319,236.006" fill="#FFECD0"/>
      <path d="M113.407,214.092 C113.407,214.092 127.763,209.243 129.399,222.56 C130.362,230.396 125.727,234.577 115.319,236.006" fill-opacity="0" stroke="#666666" stroke-width="4" stroke-linecap="round" stroke-linejoin="round"/>
      <path d="M123.874,223.97 C123.874,223.97 121.835,223.318 119.995,223.553" fill="#FFECD0"/>
      <path d="M123.874,223.97 C123.874,223.97 121.835,223.318 119.995,223.553" fill-opacity="0" stroke="#666666" stroke-width="4" stroke-linecap="round" stroke-linejoin="round"/>
      <path d="M21.837,225.343 C21.837,225.343 6.731,224.112 8.368,237.431 C9.331,245.266 14.839,248.2 25.282,247.068" fill="#FFECD0"/>
      <path d="M21.837,225.343 C21.837,225.343 6.731,224.112 8.368,237.431 C9.331,245.266 14.839,248.2 25.282,247.068" fill-opacity="0" stroke="#666666" stroke-width="4" stroke-linecap="round" stroke-linejoin="round"/>
      <path d="M14.071,237.462 C14.071,237.462 15.892,236.333 17.733,236.118" fill="#FFECD0"/>
      <path d="M14.071,237.462 C14.071,237.462 15.892,236.333 17.733,236.118" fill-opacity="0" stroke="#666666" stroke-width="4" stroke-linecap="round" stroke-linejoin="round"/>
      <path d="M58.165,275.035 C58.165,275.035 52.227,305.737 88.227,297.737 C124.227,289.737 102.185,262.611 102.185,262.611 z" fill="#FFFFFF"/>
      <path d="M58.165,275.035 C58.165,275.035 52.227,305.737 88.227,297.737 C124.227,289.737 102.185,262.611 102.185,262.611 L58.165,275.035 z" fill-opacity="0" stroke="#666666" stroke-width="4" stroke-linecap="round" stroke-linejoin="round"/>
      <path d="M138.081,321.746 C138.081,321.746 138.976,314.488 151.513,314.735 C164.052,314.981 152.563,337.836 152.563,337.836 L138.267,337.804 z" fill="#FFECD0"/>
      <path d="M138.081,321.746 C138.081,321.746 138.976,314.488 151.513,314.735 C164.052,314.981 152.563,337.836 152.563,337.836 L138.267,337.804 L138.081,321.746 z" fill-opacity="0" stroke="#666666" stroke-width="4" stroke-linecap="round" stroke-linejoin="round"/>
      <path d="M44.788,269.879 C44.788,269.879 34.227,294.737 29.227,316.737 L46.645,324.101 L63.556,303.361" fill="#E5F5AD"/>
      <path d="M44.788,269.879 C44.788,269.879 34.227,294.737 29.227,316.737 L46.645,324.101 L63.556,303.361" fill-opacity="0" stroke="#666666" stroke-width="4" stroke-linecap="round" stroke-linejoin="round"/>
      <path d="M46.645,324.101 C46.645,324.101 46.227,341.737 32.227,337.737 C18.227,333.737 29.227,316.737 29.227,316.737 z" fill="#FFECD0"/>
      <path d="M46.645,324.101 C46.645,324.101 46.227,341.737 32.227,337.737 C18.227,333.737 29.227,316.737 29.227,316.737 L46.645,324.101 z" fill-opacity="0" stroke="#666666" stroke-width="4" stroke-linecap="round" stroke-linejoin="round"/>
      <path d="M20.075,232.704 C23.405,259.806 47.778,279.113 74.513,275.827 C101.251,272.544 120.226,247.912 116.895,220.81 C113.567,193.71 89.192,174.403 62.458,177.686 C35.722,180.972 16.747,205.604 20.075,232.704" fill="#FFECD0"/>
      <path d="M20.075,232.704 C23.405,259.806 47.778,279.113 74.513,275.827 C101.251,272.544 120.226,247.912 116.895,220.81 C113.567,193.71 89.192,174.403 62.458,177.686 C35.722,180.972 16.747,205.604 20.075,232.704 z" fill-opacity="0" stroke="#666666" stroke-width="4" stroke-linecap="round" stroke-linejoin="round"/>
      <path d="M72.52,232.807 C72.52,232.807 72.649,236.372 69.688,235.627" fill-opacity="0" stroke="#666666" stroke-width="4" stroke-linecap="round" stroke-linejoin="round"/>
      <path d="M43.673,230.274 C44.263,235.059 46.394,238.737 48.436,238.486 C50.483,238.235 51.665,234.151 51.077,229.364 C50.487,224.575 48.352,220.9 46.31,221.151 C44.265,221.401 43.087,225.485 43.673,230.274" fill="#666666"/>
      <path d="M93.413,224.161 C94.003,228.949 92.821,233.032 90.778,233.284 C88.735,233.535 86.601,229.858 86.011,225.071 C85.425,220.282 86.604,216.2 88.647,215.948 C90.69,215.697 92.825,219.374 93.413,224.161" fill="#666666"/>
      <path d="M71.53,242.46 C69.661,242.98 58.224,260.976 72.899,258.755 C87.575,256.534 73.399,241.941 71.53,242.46" fill="#F09A96"/>
      <path d="M71.53,242.46 C69.661,242.98 58.224,260.976 72.899,258.755 C87.575,256.534 73.399,241.941 71.53,242.46 z" fill-opacity="0" stroke="#666666" stroke-width="4" stroke-linecap="round" stroke-linejoin="round"/>
      <path d="M84.423,179.803 C84.423,179.803 76.892,172.785 61.343,174.696 C45.794,176.606 37.683,188.177 37.683,188.177 C37.683,188.177 53.593,190.39 52.851,202.544 C81.673,200.79 84.423,179.803 84.423,179.803" fill="#DEAC5F"/>
      <path d="M84.423,179.803 C84.423,179.803 76.892,172.785 61.343,174.696 C45.794,176.606 37.683,188.177 37.683,188.177 C37.683,188.177 53.593,190.39 52.851,202.544 C81.673,200.79 84.423,179.803 84.423,179.803 z" fill-opacity="0" stroke="#666666" stroke-width="4" stroke-linecap="round" stroke-linejoin="round"/>
      <path d="M58.321,198.596 C60.882,193.963 54.583,189.972 48.618,192.341 C42.657,194.712 39.921,205.176 53.52,206.78 C78.851,209.77 84.94,179.975 84.94,179.975 C84.94,179.975 83.893,179.031 81.448,177.808" fill="#DEAC5F"/>
      <path d="M58.321,198.596 C60.882,193.963 54.583,189.972 48.618,192.341 C42.657,194.712 39.921,205.176 53.52,206.78 C78.851,209.77 84.94,179.975 84.94,179.975 C84.94,179.975 83.893,179.031 81.448,177.808" fill-opacity="0" stroke="#666666" stroke-width="4" stroke-linecap="round" stroke-linejoin="round"/>
      <path d="M53.7,352.255 C52.504,350.051 52.05,339.46 62.003,334.465 C70.969,329.959 81.81,326.793 81.586,332.061 C81.435,335.615 75.677,338.982 75.677,338.982 C75.677,338.982 106.068,344.904 98.254,355.801 C90.358,366.81 74.14,365.462 61.032,358.721 C55.128,355.687 54.896,354.459 53.7,352.255" fill="#FFECD0"/>
      <path d="M53.7,352.255 C52.504,350.051 52.05,339.46 62.003,334.465 C70.969,329.959 81.81,326.793 81.586,332.061 C81.435,335.615 75.677,338.982 75.677,338.982 C75.677,338.982 106.068,344.904 98.254,355.801 C90.358,366.81 74.14,365.462 61.032,358.721 C55.128,355.687 54.896,354.459 53.7,352.255 z" fill-opacity="0" stroke="#666666" stroke-width="4" stroke-linecap="round" stroke-linejoin="round"/>
      <path d="M162.964,341.551 C162.964,341.551 158.763,330.15 148.634,327.771 C139.508,325.623 130.212,327.002 129.712,332.668 C129.255,337.85 137.186,334.353 137.186,334.353 C137.186,334.353 121.229,340.446 128.03,350.536 C135.78,362.036 144.326,356.972 154.776,348.576 C159.481,344.795 162.964,341.551 162.964,341.551" fill="#FFECD0"/>
      <path d="M162.964,341.551 C162.964,341.551 158.763,330.15 148.634,327.771 C139.508,325.623 130.212,327.002 129.712,332.668 C129.255,337.85 137.186,334.353 137.186,334.353 C137.186,334.353 121.229,340.446 128.03,350.536 C135.78,362.036 144.326,356.972 154.776,348.576 C159.481,344.795 162.964,341.551 162.964,341.551 z" fill-opacity="0" stroke="#666666" stroke-width="4" stroke-linecap="round" stroke-linejoin="round"/>
      <path d="M224.619,177.02 C241.57,154.839 225.078,144.161 213.012,118.999 C205.357,103.041 201.35,93.21 198.504,83.032 C198.504,83.032 182.168,33.141 140.844,34.17 C140.844,34.17 192.986,17.647 215.842,59.394 C275.023,167.493 224.619,177.02 224.619,177.02" fill="#D4A672"/>
      <path d="M198.504,83.032 C201.35,93.21 205.357,103.041 213.012,118.999 C225.078,144.161 241.57,152.144 224.619,174.324" fill-opacity="0" stroke="#666666" stroke-width="4" stroke-linecap="round" stroke-linejoin="round"/>
      <path d="M49.607,177.02 C32.656,154.839 49.146,144.161 61.215,118.999 C68.867,103.041 72.877,93.21 75.723,83.032 C75.723,83.032 92.057,33.141 133.383,34.17 C133.383,34.17 81.24,17.647 58.385,59.394 C-0.797,167.493 49.607,177.02 49.607,177.02" fill="#D4A672"/>
      <path d="M75.379,77.732 C72.533,87.909 68.867,103.041 61.215,118.999 C49.146,144.161 32.656,152.144 49.607,174.324" fill-opacity="0" stroke="#666666" stroke-width="4" stroke-linecap="round" stroke-linejoin="round"/>
      <path d="M86.611,34.743 C86.611,34.743 71.672,37.881 67.82,56.39 C63.969,74.9 79.777,88.701 137.113,83.751" fill="#D4A672"/>
      <path d="M86.611,34.743 C86.611,34.743 71.672,37.881 67.82,56.39 C63.969,74.9 79.777,88.701 137.113,83.751" fill-opacity="0" stroke="#666666" stroke-width="4" stroke-linecap="round" stroke-linejoin="round"/>
      <path d="M86.611,34.743 C88.232,31.909 100.721,26.137 103.266,22.852 C103.266,22.852 130.885,4.098 159.125,18.906 C187.365,33.716 200.543,66.354 200.744,71.368 C200.945,76.383 204.441,86.607 200.441,87.371 C196.443,88.136 183.689,85.603 183.689,85.603 C183.689,85.603 132.977,90.283 119.289,78.144 C106.867,67.126 70.684,62.576 86.611,34.743" fill="#D4A672"/>
      <path d="M104.994,56.071 C101.533,79.446 137.113,90.454 193.336,84.738" fill="#D4A672"/>
      <path d="M104.994,56.071 C101.533,79.446 137.113,90.454 193.336,84.738" fill-opacity="0" stroke="#666666" stroke-width="4" stroke-linecap="round" stroke-linejoin="round"/>
      <path d="M143.994,61.071 C143.994,61.071 163.107,79.907 205.363,87.724" fill="#D4A672"/>
      <path d="M143.994,61.071 C143.994,61.071 163.107,79.907 205.363,87.724" fill-opacity="0" stroke="#666666" stroke-width="4" stroke-linecap="round" stroke-linejoin="round"/>
    </g>
  </g>
</svg>
